<svg viewBox="0 0 141 36" fill="none" xmlns="http://www.w3.org/2000/svg"><path fill-rule="evenodd" clip-rule="evenodd" d="M69.85 12.311a1.003 1.003 0 100-2.007 1.003 1.003 0 000 2.007zm-9.82-6.989C60.03 2.067 61.98 0 63.983 0c.989 0 2.313.659 2.313 2.176 0 1.269-1.14 1.87-1.426 2.02l-.055.03c-.478.299-.815.657-.91 1.079-.069.306.008.627.213.881a.574.574 0 01.138.354c0 .41-.264.66-.264.66l-.473-.61a1.753 1.753 0 01-.318-1.444c.112-.496.416-.908.838-1.25l.001-.001c.123-.102.28-.203.447-.31.499-.322 1.082-.698 1.082-1.296 0-.756-.53-1.356-1.567-1.356-2.008 0-3.124 2.487-3.124 4.39 0 6.253 2.112 11.224 3.363 14.167.271.639.502 1.181.662 1.621.019.04-.065.104-.114.018-2.03-3.897-4.759-9.792-4.759-15.807zm12.2 22.629c-.49-.588-.327-1.44.153-2.64.04-.099.129-.301.256-.59.98-2.222 4.214-9.55 4.214-13.813 0-.143.002-.268.004-.377.01-.6.014-.751-.395-1.113-.29-.258-.84-.681-1.701-1.07a12.411 12.411 0 00-2.7-.747c-.09-.014-.07-.148.02-.143 1.334.07 2.147.26 3.029.513a.056.056 0 00.06-.086l-.09-.126c-.26-.368-.42-.879-.417-1.226a1.31 1.31 0 01.3-.801.32.32 0 00.07-.268c-.2-.887-3.089-1.692-5.183-1.692s-4.983.805-5.182 1.692a.32.32 0 00.07.268c.19.236.296.519.298.801.003.347-.156.858-.418 1.226l-.089.126c-.03.044.01.1.061.086a12.143 12.143 0 013.03-.513c.09-.005.108.129.019.143a12.419 12.419 0 00-2.7.746c-.861.39-1.411.814-1.702 1.072-.407.36-.405.512-.394 1.111.002.11.004.234.004.378 0 4.262 3.233 11.59 4.214 13.812.127.29.217.492.256.59.48 1.202.643 2.053.153 2.64a2.137 2.137 0 01-.986.686l-.766.255a1.388 1.388 0 00-.768.632s-.411.7-.31.739c.05.018.135.04.258.065l-.399.005c-4.42.06-8.813.171-13.163.334a.816.816 0 00-.02-.938 13.716 13.716 0 00-1.22-1.45 12.759 12.759 0 00-1.172-1.072 18.688 18.688 0 003.242-6.406c.273.463.473.924.496 1.356.04.765-.136 1.536-.304 2.272-.154.672-.3 1.313-.27 1.894.072 1.374.341 2.027.341 2.027s.864.694 1.919.938c-.82-1.716-.821-2.963-.822-4.32-.001-.413-.001-.837-.025-1.287-.084-1.604-.9-2.85-1.48-3.6a37.705 37.705 0 00-1.272-1.541s.406.704.841 1.374c-.512 2.192-1.261 3.642-1.711 4.415-.157.113-.256.206-.346.29l-.03.03c-.072.111-.245.362-.46.674v.001c-.227.33-.501.729-.752 1.102 1.135-3.02 2.382-6.807 2.31-10.625-.005-.25-.016-.672-.033-1.101-.007-.238-.02-.484-.038-.735a5.662 5.662 0 00-.06-.579.83.83 0 00-.15-.374c.343.015.505.107.733.323.329-.069.751.12 1.092.558.694.892.957 2.233 1.212 3.538.152.774.3 1.535.536 2.184.083-2.043-.241-3.571-.98-5.075a30.873 30.873 0 00-.331-3.785l-3.61-.478c-.043.154-.174.312-.37.456l.738.093a.694.694 0 01.157.265.08.08 0 00-.005.084c.005.013.009.022-.002.028a.614.614 0 01-.04.024c-.013.007-.029.015-.052.029-.044.025-.044.065-.044.065s-.157.077-.156.09c0 .014.021.038.058.05.01.057.053.101.07.119h.002l.003.004c.004.005.01.013.014.013.002 0 .003-.003.004-.007l.002-.005a.039.039 0 01.017-.017.228.228 0 01.149-.016c.036.009.055.035.056.062 0 .028-.022.058-.056.07a.199.199 0 01-.104.005l-.025-.003c-.003 0-.006 0-.007.003a.008.008 0 000 .007c.009.014.012.03.015.048.007.035.015.076.07.123.013-.021.066-.08.108-.042.023.02.034.04.034.062 0 .042-.045.084-.119.127a2.25 2.25 0 01-.353.119l.005.003-.015-.006-.046-.026c-.031-.174-.242-.284-.488-.36a6.391 6.391 0 00-.62-.152h-.001c-.133-.215-.108-.787.074-1.112-.265-.207-.875-.231-1.378-.094-.53.145-.84.455-1.132.745-.178.178-.35.349-.559.47.555-.09 1.037-.088 1.448-.086h.056c.661.002.738.142.792.24l.02.033c-2.467-.012-3.003.232-3.093.593 1.209-.235 3.618-.475 4.505.092-.936-.131-3.211-.11-3.274.725-.177 2.336.178 5.939 1.114 9.845.385 1.606 1.462 1.269 1.854.644.27-.43.668-1.208 1.05-2.246a36.08 36.08 0 01-1.724 5.307c-.335.07-.697.198-.83.452l-.032.064c.33-.02.721-.042.897-.046.335-.007.541.072.68.175-.68.024-1.31.062-1.68.087a8.02 8.02 0 00-.18.424l.326-.02a53.6 53.6 0 012.115-.108c.133.116.275.244.424.386-.809.03-2.142.113-3.02.172a7.917 7.917 0 00-.397 1.963l.422-.026c1.506-.094 3.338-.208 4.276-.252a.242.242 0 00.21-.174l.046.061.032.044a.44.44 0 01.042.455.441.441 0 01-.38.254l-3.055.16c-1.438.064-2.87.134-4.296.21a.44.44 0 01-.282-.204.44.44 0 01-.006-.457 13.096 13.096 0 012.886-3.448l-.172-.362c-.67-1.409-2.779-5.833-3.576-8.807.395 2.44 1.306 5.202 3.026 8.478-.35-.44-.862-1.085-1.24-1.545a2.548 2.548 0 00-.603-.38l-.015-.008c-1.266-1.808-2.2-3.6-2.86-5.515 1.44-1.662 2.828-3.327 2.095-5.865.07 1.715-1.07 3.293-2.189 4.84-.984 1.36-1.951 2.699-2.065 4.088.364-.882.963-1.662 1.605-2.42.918 2.465 2.44 5.166 4.948 7.95a13.332 13.332 0 00-2.163 2.806.814.814 0 00.035.879C27.66 31.87 13.258 33.307.294 35.31a.346.346 0 00.105.685c19.054-2.946 41.222-4.665 64.11-4.97 14.127-.19 27.95.161 41.082 1.042 12.685.851 24.395 2.172 34.803 3.927a.346.346 0 10.115-.683c-7.31-1.233-15.26-2.252-23.738-3.044l-.446-2.377a.105.105 0 00-.094-.087l-1.571-.065a14.49 14.49 0 01-1.813-.19l-1.597-.269a.108.108 0 00-.111.067l-.893 2.259a.104.104 0 00.015.105 469.218 469.218 0 00-13.68-.853c.247-.047.453-.114.582-.206.216-.154.322-.507.372-.907 0 0-.041-.078-.207-.125 0 0 .053-.167.076-.454 0 0 .116-.023.236-.08 0 0 .13-.53-.173-.937-.089-.117-.164-.082-.334-.004-.231.107-.637.294-1.49.293.971-.158 1.267-.518 1.341-.66.02-.04.008-.073.008-.073-1.091-3.26-.451-4.268.995-6.319 1.446-2.05 2.157-4.21 2.273-6.424.067-1.288-.177-2.328-.4-2.848-.07-.157-.08-.099-.092-.005l-.004.037c-.022.188-.108.93-.25 1.851a.372.372 0 00.002.127c.054.276.222 1.461-.132 3.135-.242 1.145-1.096 2.784-2.198 3.444 0 0-.105.063-.209.119-.133.069-.19.062-.207.044-.018-.018.01-.1.064-.198a1.24 1.24 0 01.102-.154l.039-.052c.664-.922 1.118-2.131 1.432-3.082.962-2.853 1.363-7.739 1.38-7.952l.001-.005c.017-.179-.103-.26-.256-.36l-.033-.023c-.168-.112-1.85-1.057-4.185-1.18-2.337-.122-4.108.642-4.286.736l-.036.019c-.162.085-.29.152-.292.332v.004c-.005.202-.118 5.112.542 8.054.213.978.538 2.228 1.102 3.214l.034.057c.028.048.052.087.084.163.045.102.063.187.044.203-.02.017-.077.018-.202-.065a6.072 6.072 0 01-.195-.14c-1.027-.772-1.705-2.491-1.826-3.655-.177-1.701.114-2.862.196-3.131a.367.367 0 00.016-.126 50.137 50.137 0 01-.055-1.867v-.038c-.002-.094-.007-.153-.092-.004-.277.494-.629 1.502-.696 2.79-.116 2.214.365 4.437 1.589 6.627 1.224 2.19 1.755 3.26.33 6.387 0 0-.017.033 0 .075.058.149.314.537 1.263.796-.847-.089-1.232-.317-1.45-.447-.161-.096-.232-.138-.333-.031-.344.373-.27.914-.27.914.114.07.227.104.227.104-.008.288.027.459.027.459-.17.03-.218.103-.218.103.008.403.076.765.275.941.15.134.428.239.76.322a522.048 522.048 0 00-16.889-.365.93.93 0 00.097-.029c.1-.038-.31-.74-.31-.74a1.387 1.387 0 00-.768-.63l-.766-.256c-.4-.133-.72-.367-.986-.685zM69.85 9.77a1.362 1.362 0 110 2.724 1.362 1.362 0 010-2.723zm4.98-5.574c-.285-.15-1.426-.751-1.426-2.021C73.404.659 74.728 0 75.717 0c2.002 0 3.953 2.067 3.953 5.323 0 6.014-2.73 11.909-4.76 15.806-.048.086-.132.022-.113-.018.16-.44.39-.982.662-1.62 1.25-2.944 3.363-7.915 3.363-14.168 0-1.903-1.116-4.39-3.124-4.39-1.037 0-1.567.6-1.567 1.356 0 .598.583.974 1.082 1.295.166.108.324.21.447.31l.001.002c.422.342.726.754.838 1.25a1.753 1.753 0 01-.318 1.445l-.473.61s-.264-.251-.264-.66c0-.12.05-.246.137-.354.206-.255.283-.576.214-.882-.096-.422-.433-.78-.91-1.078a1.099 1.099 0 00-.055-.03zM27.334 26.883c-.131-.195-.696-.8-2.895-.601-2.193.263-2.62.972-2.707 1.19a.235.235 0 00-.014.112l-.002.332a9.45 9.45 0 012.817-.726 9.31 9.31 0 012.897.125l-.058-.325a.235.235 0 00-.038-.107zm-3.92-13.24c.744-.02 1.38.239 1.425.621-.42-.094-1.092-.11-1.657-.05-.588.061-1.22.214-1.61.394-.036-.384.53-.765 1.264-.905l-.023-.323c-.288-.055-.507-.24-.533-.48a.485.485 0 01.115-.356c.156-.206.244-.408.12-.688a.177.177 0 01-.014-.054c-.01-.087.048-.171.144-.231a.284.284 0 01.241-.174.284.284 0 01.272.12c.107.039.18.11.19.196a.177.177 0 01-.004.056c-.062.3.066.479.26.647a.485.485 0 01.187.326c.026.24-.151.467-.423.58l.046.32zm-.883 12.097a3.21 3.21 0 01-1.061-1.003c-.18-.27-.394-.748-.428-.968-.086-.549.175-.724.437-.82.217-.079.604-.13.642.193.094.82.33 1.693.814 2.39a2.728 2.728 0 00-.404.208zm.59-3.41c.369-.096.695-.007.742.296.01.065.273 2.596.273 2.596a5.4 5.4 0 00-.82.175c-.398-.541-.706-1.367-.809-2.297-.022-.438.148-.648.614-.77zm-1.016 3.889zm0 0a.573.573 0 01.114-.214 3.618 3.618 0 01-1.508-1.965c-.025-.083-.095-.23-.241-.156-.261.134-.392.472-.357.81.074.701.867 1.26 1.992 1.525zm5.142-3.102c.012.222-.098.733-.218 1.035a3.21 3.21 0 01-.83 1.202 2.728 2.728 0 00-.437-.118c.327-.784.377-1.686.3-2.508-.032-.324.358-.354.587-.322.276.039.567.156.598.711zm-2.998-.532c-.017-.306.284-.461.665-.444.48.023.691.193.76.626.093.93-.037 1.803-.314 2.415a5.345 5.345 0 00-.838 0s-.269-2.531-.273-2.597zm3.379.728c.006-.086.044-.245.202-.202.283.077.482.38.517.717.074.702-.586 1.413-1.63 1.906a.572.572 0 00-.157-.185 3.619 3.619 0 001.067-2.236zm.069-1.084c-.571-.327-1.85-.803-3.757-.603-1.057.111-2.212.502-2.972.94.964-1.37.6-4.09.029-5.47.661-.363 1.596-.643 2.427-.73.831-.088 1.931.008 2.61.377-.127 1.441-.03 2.469.495 4.083-.399-2.04-.148-3.267.102-4.329-.73-.658-2.294-.78-3.266-.679a7.48 7.48 0 00-2.58.768c-.169-.386-.34-.744-.422-.9.742-.489 1.814-.866 2.896-.973 2.004-.197 3.784.397 4.226 1.289-.73 1.173-1.004 4.717.212 6.227zm-6.694 8.613c.354-.587.262-1.778.239-2.016a.073.073 0 01.03-.067c.543-.385 1.673-.85 3.315-1.023 1.624-.171 2.856.049 3.468.314a.07.07 0 01.041.057c.026.23.177 1.394.662 1.929.005.005 0 .012-.007.01-.676-.354-2.311-.425-3.947-.253-1.307.138-3.133.514-3.792 1.057-.006.004-.013-.002-.009-.008zm8.142-.085a.606.606 0 01.3.362l.202.656c.002.003-.002.007-.005.005-.386-.241-1.519-.65-4.661-.364-3.149.376-4.167 1.015-4.489 1.33-.002.002-.006 0-.006-.004l.062-.685a.607.607 0 01.216-.415c.545-.447 1.693-1.015 4.104-1.303 2.409-.22 3.65.095 4.277.418zm-1.721-10.04c.694-.278 1.23-1.043 1.367-1.822.16-.902-.23-1.903-1.138-2.275-.368.87-.553 2.779-.23 4.097zm.734-2.87c-.27.437-.525 1.103-.525 2.1.442-.38.89-1.286.525-2.1zm-8.726 11.325c-.75-1.213-1.03-2.72-.61-3.666h.001c.002-.005.01-.003.01.002-.043.697.517 2.042 1.752 2.92l-.001.007c-.17.022-.762.119-.764.119 0 0-.181.29-.38.618h-.008zm-.835-4.572c.007-.008.019 0 .014.01-1.405 2.365.276 5.27 1.611 6.364-.542.067-.955.134-.955.134l-.486.803c-.744-1.155-2.596-4.378-.184-7.311zm11.686.587c-.003-.01.012-.015.016-.005 1.037 2.175.79 3.264.376 4.545-.169-.21-.47-.614-.47-.614s-.769.035-.776.038c.429-.566 1.308-2.062.854-3.964zm-11.392-7.58l.228.404c.498.873.776 1.529.924 2.242-1.237-.11-1.99-1.706-1.77-2.97l-.161-.27-.002-.003v-.002c-.09-.148-.183-.305-.241-.403-.469.887-.308 2.586.758 3.62h.001c.232.505.647 1.933.576 2.818 0 .005.006.006.008.002a5.584 5.584 0 00.361-2.26c.213.059.372.084.547.088.043 1.63-.496 2.436-.976 3.106-.005.007.005.015.01.009 1.159-1.143 1.61-1.716 1.799-2.971.33-2.204-.632-4.218-1.051-5.027a1.642 1.642 0 00-1.782.286c.14.205.504.854.771 1.33zm9.511 5.197c-.004-.007.004-.015.01-.009 1.012 1.071 1.93 2.556 1.133 4.963-.307-.34-.503-.573-.503-.573s-.662.056-.816.074c.87-1.053 1.317-2.808.176-4.455zm66.81 1.016a.734.734 0 11-1.466-.077.734.734 0 011.466.077zm-.666-1.308c1.613.085 2.053-.765 2.053-.765s-.685.466-2.034.395c-1.349-.07-1.982-.606-1.982-.606s.35.892 1.963.976zm.952 1.414a1.031 1.031 0 00-.97-1.09 1.031 1.031 0 00-1.077.983c-.03.572.404 1.06.969 1.09a1.033 1.033 0 001.078-.983zM44.19 16.708c.019-1.398.142-2.913.215-3.422.073-.51-.577-.289-.621.172-.1 1.06.2 2.356.344 2.975.028.119.05.213.062.275zm-5.594-6.711c-.036 1.293-.085 3.074.235 5.188l-.122.213c-.754 1.317-2.34 4.088-.807 6.428-.798-1.984-.387-3.445.46-4.935.912-1.605 1.793-3.201 1.619-4.726 1.084-.245 1.576.272 1.576.272s.595-.31 1.114.243l.002.01c.166-.138.39-.252.423-.268a.266.266 0 01.044-.113l-.595-.062c-.12-.218-.351-.259-.598-.228a3.358 3.358 0 01-.025-.2.309.309 0 00.116-.13c.018-.031.031-.056.05-.061.019-.005.027.017.034.04.001.004.007.005.021-.007a.209.209 0 00.043-.05l.005-.007a.049.049 0 01.024-.02c.01-.004.015.004.015.014v.007c0 .012 0 .023.015.02.014-.003.039-.018.069-.035.042-.024.092-.053.13-.062.087-.02.16-.015.24-.01.065.005.135.01.22.002a.71.71 0 01.129.005l.06.005a.413.413 0 00-.073.53.273.273 0 11.536-.042l.062-.027c.05-.022.112-.048.158-.065a.413.413 0 00-.432-.502h-.007c.002-.028-.002-.052-.022-.068l-.025-.027a.106.106 0 00-.05-.039c-.02-.006-.039-.001-.061.004a.331.331 0 01-.055.008c-.036.002-.074.018-.117.036l-.046.018c-.07.027-.152.019-.26.003a3.492 3.492 0 01-.335-.191l-.019-.012a.175.175 0 01-.073-.117c-.006-.037.003-.064.019-.073.029-.016.057.005.09.03.017.013.035.027.056.037.049-.052.053-.078.058-.105.002-.013.004-.027.012-.044.002-.006-.004-.006-.018-.006-.029 0-.089 0-.163-.053-.046-.031-.06-.07-.042-.094.016-.022.054-.03.102-.026.065.006.107.028.13.053.01.01.01.018.01.024l.001.003.001.006h.003v-.001c.056-.044.07-.062.078-.103.036-.015.076-.05.059-.066-.04-.039-.2-.135-.2-.135s.01-.026-.02-.057c-.013-.013-.038-.026-.064-.04-.038-.02-.08-.041-.095-.07.016-.03.024-.089-.01-.127.007-.055.063-.104.12-.153a.795.795 0 00.083-.08l.42.054.248.032a1.52 1.52 0 01.4-.315c.148-.08.272-.12.272-.12l-.315-.042a3.139 3.139 0 00-.107-.238c-.14-.122-.263-.287-.245-.497a.503.503 0 00-.03.198.593.593 0 00.187.384l.04.134-4.554-.596-.078.098-.001.001-.107.134c-.003.243-.01.514-.018.81zm.663 2.446l.301.03c.081.423.04.993-.151 1.529a31.407 31.407 0 01-.15-1.559zm.772-.99a.85.85 0 00.108-.023c.022-.007.026.013.02.049a.794.794 0 01-.017.065.266.266 0 00-.017.113.457.457 0 01-.004.095 1.178 1.178 0 00-.526.048c-.032-.032-.022-.083.068-.162a.831.831 0 01.172-.12l.024-.013c.052-.03.112-.04.172-.051zm1.352.049c0 .013-.009.036-.039.033a1.028 1.028 0 01-.437-.164c-.189-.11-.359-.208-.693-.066l-.003.001c-.012.006-.04.019-.054-.002-.01-.017.003-.04.01-.049.406-.503 1.146.038 1.169.071a.33.33 0 01.047.176zm.117.194c.163.005.194.167.23.362l-.03.008-.017.005a1.156 1.156 0 01-.11-.059 1.898 1.898 0 00-.5-.212 1.406 1.406 0 00-.61-.028 1.61 1.61 0 00.177-.243.388.388 0 00.023-.055.418.418 0 01.036-.085c.015-.023.032-.028.052-.014a1.4 1.4 0 00.353.215.924.924 0 00.227.05.562.562 0 01.07.01c.008.001.025.01.043.02a.194.194 0 00.056.026zm.344-1.327c-.023-.008-.047-.015-.053-.03-.015-.032.083-.069.178-.062a.48.48 0 01.183.06c.085.046.055.076-.005.136a.599.599 0 00-.178.284c-.022.082.038.167.102.257.089.125.184.258.07.404a.645.645 0 01-.013-.04c-.015-.049-.03-.095-.078-.1-.022.13-.177.296-.211.296-.041.001-.038-.039-.032-.103.01-.112.028-.3-.167-.484-.173-.163-.013-.393.102-.47a.862.862 0 01.114-.068c.033-.017.047-.025.046-.041 0-.021-.03-.03-.058-.04zm-2.136-.578c-.038.003-.19-.106-.245-.213l2.07.262.061.063c.074.075.167.168.154.227a.743.743 0 00-.115.029c-.04.011-.073.022-.1.02-.007 0-.017.012.001.027l.008.007c.013.01.023.018.027.028.003.01 0 .025-.01.032a.815.815 0 01-.077.053.82.82 0 00-.14.103c-.011.01-.016.017-.015.022 0 .005.007.007.012.009h.003c.056.02.058.041.05.055-.007.012-.048.034-.094.06-.066.035-.142.076-.147.104-.001.005.005.006.015.007a.072.072 0 01.043.016.05.05 0 01.016.036c0 .018-.01.037-.033.049-.123.061-.32.005-.533-.055-.09-.025-.181-.052-.272-.07a.741.741 0 00-.45.064c-.028.001-.193-.066-.185-.224.006-.122.159-.162.288-.146.146.018.306.08.461.142.091.035.18.07.264.096.157.046.511.062.457-.225-.049-.26-.537-.445-1.109-.473-.055-.072-.123-.088-.19-.105-.062-.015-.123-.03-.173-.088-.018-.021-.03-.002-.031.009a.08.08 0 00.003.027c.002.01.004.02.004.028 0 .01-.006.023-.018.024zm-.395 2.123l-.088-.009a42.745 42.745 0 01-.065-2.365l.226.028c.021.108.1.18.17.239l.066.055c.059.048.11.091.11.104-.001.04-.034.046-.063.05-.007 0-.015.002-.02.003-.018.005-.003.021.016.032l.008.004c.072.04.228.126.432-.077.57-.018.895.209.963.296.074.096.08.197-.026.228-.157.046-.31-.017-.494-.093-.162-.066-.348-.143-.579-.16-.212-.017-.41.13-.377.308.017.098.06.148.097.19.032.036.06.067.062.119a.72.72 0 01-.062.099.337.337 0 00-.07.15c-.006.03-.009.062-.012.093-.007.079-.014.152-.066.205a.387.387 0 01-.127.078c-.032.014-.058.025-.065.041.05.03.01.088-.024.138l-.003.003c-.02.029.002.059.03.097.02.028.044.061.058.102l-.097.042zm.663 3.751c.579-.93 1.157-1.859 1.445-2.864.013 1.76-.88 3.005-1.794 4.28-.424.592-.852 1.189-1.197 1.846.24-1.162.893-2.212 1.546-3.262zm11.067-2.96c.04.06.082.127.13.177.079.083.041.128-.018.175a.19.19 0 00-.049.038c-.218-.25-.568-.322-.788-.336a1.567 1.567 0 00-.144-.002.326.326 0 01.088-.11h.093c.091.003.218.005.31-.014a.337.337 0 00.146-.067c.032-.022.056-.038.085-.03.045.012.093.085.147.168zm-.65-.418c.205-.062.472-.059.649.008.158.06.216.125.21.14-.009.021-.051.01-.063.007h-.003a.735.735 0 00-.51.037l-.03.01-.034.013c-.088.031-.322.028-.349.004-.046-.041.015-.185.13-.22zm1.39.604a.87.87 0 01.118.138.127.127 0 01.023.064 1.157 1.157 0 00-.398-.092L51.501 13a.558.558 0 01-.038-.003c.002-.005-.001-.018-.006-.038a.476.476 0 01-.018-.138.327.327 0 00-.02-.1l-.01-.035c-.004-.02.01-.045.037-.027.016.01.046.025.079.041.042.021.09.045.118.064.03.02.073.062.109.097l.03.03zm-.081-1.529a.379.379 0 00.234-.21l.055.007c.057.629.1 1.257.125 1.835a.26.26 0 00-.038-.058l-.03-.027a2.945 2.945 0 01-.175-.166c-.01-.01-.017-.046-.03-.098a1.416 1.416 0 00-.14-.4c-.01-.027.005-.057.026-.097a.455.455 0 00.062-.214c.001-.099-.033-.165-.13-.23-.091-.062-.242-.087-.396-.074-.09.008-.163.024-.233.039a.972.972 0 01-.314.031c-.08-.007-.14-.098-.143-.168-.006-.116.044-.18.243-.22.323-.061.52.05.52.05s.158.2.363.124c-.08-.043-.1-.054-.044-.103a.178.178 0 01.045-.02zm-1.537-.096c-.002-.058-.088-.097-.192-.13v-.001c-.042-.017.044-.128.127-.215l1.796.226a.348.348 0 01-.262.137c-.022 0-.021-.011-.014-.025l.01-.012c.01-.014.022-.03.016-.047-.015.018-.06.023-.117.029a.612.612 0 00-.204.044.062.062 0 01-.018-.005c-.073-.021-.303-.088-.554-.026-.132.033-.288.118-.273.302a.26.26 0 00.206.243c.106.027.235 0 .366-.027.075-.016.151-.032.224-.038.246-.018.35.077.371.172.02.087-.029.173-.075.174-.048.001-.1-.029-.158-.062-.057-.032-.12-.068-.187-.077a1.202 1.202 0 00-.237.004c-.196.014-.427.03-.524-.086-.014-.016-.014-.038-.002-.05.012-.012.023-.01.034-.008.008 0 .016.002.024-.003.008-.006-.033-.05-.078-.086a1.66 1.66 0 00-.092-.07l-.036-.026c-.012-.008-.036-.03-.01-.047a.09.09 0 01.045-.011c.003 0 .006-.004.004-.008a.698.698 0 00-.158-.147c-.05-.039-.082-.074-.085-.088-.001-.01.004-.017.012-.02.007-.004.014-.005.022-.007.01-.002.02-.004.02-.01zm-.348.42c-.005-.152-.01-.299-.16-.371-.024-.012-.088-.042.007-.071.193-.06.324.003.355.051-.082.006-.115.012-.135.036.161.184.173.328.185.477a.884.884 0 00.076.336c.005.01.01.033-.02.026a.397.397 0 01-.258-.2.664.664 0 01-.05-.284zm.502 1.326l-.002-.002.002.002zm1.702 3.233c.164.953.335 1.95.998 2.869.47.652.904.887 1.33 1.118.29.158.578.314.87.6a5.31 5.31 0 00-.845-.456l-.105-.046c-.698-.304-1.415-.617-2.08-1.724-.598-.997-.724-2.068-.795-2.67l-.02-.167a29.072 29.072 0 01-.028-.226c-.07-.584-.176-1.474-.435-2.068.765.766.933 1.742 1.11 2.77zm2.09 7.74c-.045-.865-.093-1.791-.31-2.837.356.667.506 1.404.668 2.205.342 1.69.74 3.663 3.264 5.848-.9-.193-1.824-.48-2.413-.73-1.055-1.535-1.127-2.91-1.209-4.485zm-.31-2.837l-.002-.003.002.003zm-14.664 5.534zm0 0zm1.006-1.924c-.297-.75-.598-1.513-.514-2.538.279.67.706 1.316 1.128 1.955.464.702.922 1.395 1.17 2.1.284.803.461 2.024.205 3.478l-.05-.06c-.448-.525-1-1.173-1.63-1.6.44-1.44.069-2.379-.309-3.335zm16.383.185c.316-.316.52-1.049.493-1.118-.638-1.7-1.981-2.508-2.59-2.753 1.274.265 2.66 1.6 2.936 3.008-.117 1.036-.644 1.781-.884 2.12l-.023.033-.024-.107c-.195-.859-.423-1.858-1.131-3.04 0 0 1.028 1.302 1.223 1.857zM42.249 4.679a.383.383 0 00-.102.746c-.12-.071-.203-.275-.11-.348.089-.072.174-.011.264.052.068.048.138.098.213.091-.001.093-.102.218-.267.224.12.791.344 1.728.72 2.791a21.508 21.508 0 01-.296-2.328l.13.118h.002c.27.246.614.56.946.797.254-.711.574-1.569.805-2.07.02.28.123.968.21 1.367-.28.586-.59 1.264-.876 2.067a1.88 1.88 0 00-.519.341c.434-.316 1.631-.546 2.49-.59.851-.043 1.643.1 1.64.327-.616-.148-1.333-.13-1.645.148-.133.119-.175.166-.238.312 1.429-.103 2.327.127 2.541.52-.9-.363-2.084-.338-2.639-.272-.4.048-.808.126-.946.375.402-.098.86-.165 1.349-.19 1.619-.086 2.99.318 3.064.957-.003-.191-.081-.47-.496-.703l.06-.276a.582.582 0 00.144-.4c-.012-.228-.185-.432-.476-.597 0 0 .333-.396.536-.75.008.15.01.35-.024.705.296-.999.393-1.986.436-2.547l.023-.314a.383.383 0 10-.286-.091c-.105-.176-.05-.288.01-.319.047-.023.098-.01.142.045l.007.008c.07.088.151.188.273.166a.264.264 0 01-.278.174.204.204 0 01-.074-.021l-.018.03c-.134.213-.544.867-.697 1.034a24.636 24.636 0 00-.823-1.879.413.413 0 10-.36-.091c-.1-.107-.095-.214-.059-.265.044-.061.12-.05.162-.01.094.088.204.167.337.105.012.072-.098.236-.245.252a.188.188 0 01-.045 0l-.009-.001L46 5.922a48.81 48.81 0 01-1.416-1.524.417.417 0 10-.348-.036c-.154-.172-.086-.373.016-.364.042.004.08.04.122.078.076.07.165.153.315.073.005.075-.114.24-.305.266a29.05 29.05 0 00-.756 1.929c-.369-.254-.87-.765-1.097-1.003a.382.382 0 00-.281-.662zm5.573 3.285c-.411-.142-.942-.227-1.539-.233.412-.445.89-1.048.925-1.103a9.98 9.98 0 01.614 1.336zm-3.596.088c.19-.56.396-.995.574-1.368.196.224.604.66 1.006 1.06a5.458 5.458 0 00-1.58.308zm-4.758 20.666c-.512-.247-1.095-.538-1.33-.75-.363-1.526-.416-4.541.85-6.66-.877 1.249-1.63 3.413-1.544 5.079.032.6.117 1.235.27 1.902 0 0 .784.643 2.49 1.249-.248-.366-.744-1.393-1.067-2.856-.062.774.2 1.744.33 2.036zm76.995-15.528h.001a.272.272 0 01.062.296l-.407.909a.274.274 0 01-.262.15l-.99-.104a.276.276 0 01-.225-.202l-.209-.974a.272.272 0 01.122-.276l.865-.497a.275.275 0 01.301.032l.742.666zm-3.101 2.764c.196.698.391 1.565.513 2.558a17.582 17.582 0 01-.077 4.753c-.278 1.804-.674 3.846-1.393 5.819a.108.108 0 01-.112.068l-.798-.124a.105.105 0 01-.08-.157c1.013-1.812 1.555-4.28 1.829-6.153a15.81 15.81 0 00.017-4.545 13.466 13.466 0 00-.765-2.955 8.653 8.653 0 00-.493-1.059c-.011-.017 0-.04.02-.046a2.457 2.457 0 01.365-.067l.014-.002v-.034l.001-.582c0-.104.022-.125.048-.05.026.075.066.219.087.319l.21.942c.022.1.044.243.047.316v.02l-.001.01.072.16.057.11.067.12a.47.47 0 01-.058-.19l-.005-.093c-.005-.102.065-.147.155-.097l.548.295a.912.912 0 01.271.241l.369.528h-.001c.06.085.023.156-.078.16l-.111.003a.536.536 0 01-.326-.12l-.435-.391a.697.697 0 00.011.101c.001.005.003.012.003.023.019.094.029.12.029.12zm5.193-2.629h-.001a.517.517 0 01-.061.34l-.067.106c-.056.086-.139.083-.186-.009l-.293-.577a.845.845 0 01-.078-.352l.024-.635c.004-.102.079-.142.166-.088l.108.066c.088.054.178.18.2.28l.188.87zm-5.36-1.711h.001c.096-.036.16.016.143.119l-.104.616a.86.86 0 01-.147.33l-.398.498c-.064.08-.145.067-.179-.03l-.035-.097a.543.543 0 01.012-.347l.364-.818a.506.506 0 01.251-.237l.092-.034zm3.345-.91l.084.104c.064.08.034.155-.069.168l-.644.077a.992.992 0 01-.363-.038l-.625-.215c-.097-.033-.111-.113-.029-.175l.109-.085a.535.535 0 01.333-.095l.901.095a.51.51 0 01.303.165zm-1.755.193l.673.236a.25.25 0 01.156.248l-.073.69a.412.412 0 01-.181.28l-.886.51a.41.41 0 01-.332.016l-.631-.288a.255.255 0 01-.14-.261l.111-.665a.46.46 0 01.191-.28l.774-.453a.458.458 0 01.338-.033zm2.85.875c.077.069.136.21.131.312l-.026.706h-.001a.255.255 0 01-.189.228l-.662.146a.41.41 0 01-.323-.084l-.76-.679a.412.412 0 01-.119-.31l.073-.695a.252.252 0 01.205-.211l.708-.094a.462.462 0 01.324.102l.639.579zm-3.34 1.495l.214 1.03c.021.1-.02.244-.089.32l-.461.49a.254.254 0 01-.292.047l-.591-.325a.48.48 0 01-.204-.271l-.2-.886a.452.452 0 01.073-.33l.434-.56a.247.247 0 01.283-.068l.625.291a.427.427 0 01.208.262zm1.238 8.603c.206-1.958 1.183-3.895 1.906-5.132.695-1.193 1.413-1.979 1.557-2.137l.002-.002c.013-.015.008-.04-.007-.05-.067-.04-.235-.109-.577-.151l.073-.339c.021-.1.007-.132-.03-.07a3.058 3.058 0 00-.143.283l-.05.11a1.691 1.691 0 00-.151-.004l.055-.127a.448.448 0 00-.01-.338l-.318-.63a.247.247 0 00-.265-.122l-.641.154a.439.439 0 00-.26.214l-.425.937a.407.407 0 00.015.326c-.04.025-.08.052-.121.08a.421.421 0 00-.279-.18l-1.024-.101a.428.428 0 00-.313.118l-.461.494a.246.246 0 00-.022.292l.375.555a.456.456 0 00.291.174l.599.063-.032.122-.596-.059a2.758 2.758 0 00-.324-.012c-.075.003-.057.03.04.061l.562.181c.068.022.173.038.263.04-.701 2.758-.876 5.154-.876 5.154l-.671 7.431a.134.134 0 00.121.15l.845.088c.087.01.16-.068.149-.157-.01-.067-.025-.144-.042-.233-.149-.772-.479-2.48.018-7.202.217-2.095.886-4.036 1.467-5.4l.028.006c.07.018.168.013.249-.01-.573 1.407-1.243 3.395-1.455 5.408-.23 2.185-.335 4.758.099 7.464a.184.184 0 00.165.155l.614.024a.183.183 0 00.194-.238c-.406-1.324-.886-4.612-.594-7.39zm1.341-6.396l.064-.018-.078.172a.954.954 0 00-.308.178l-.059.056.196-.414a.253.253 0 00.185.027zm-2.798-4.709l.558-.18c.098-.031.126-.018.062.03a3.852 3.852 0 01-.275.18l-.838.492a2.32 2.32 0 01-.284.142c-.069.027-.062-.01.014-.078l.446-.403a1.01 1.01 0 01.317-.183zm3.608.591l.353.49c.059.084.059.12-.002.08a2.38 2.38 0 01-.25-.198l-.712-.655a3.615 3.615 0 01-.233-.235c-.052-.06-.021-.066.067-.015l.506.29c.09.05.212.16.271.243z" fill="url(#paint0_linear_126_2095)"/><defs><linearGradient id="paint0_linear_126_2095" x1="70.5" y1="0" x2="70.481" y2="36" gradientUnits="userSpaceOnUse"><stop stop-color="#F3D88E"/><stop offset="1" stop-color="#D8AF69"/></linearGradient></defs></svg>